<svg xmlns="http://www.w3.org/2000/svg" viewBox="0 0 783 285">
  <svg x="0" y="0" width="467" height="195">
      <svg
        width="467"
        height="195"
        viewBox="0 0 467 195"
        fill="none"
        role="img"
        aria-labelledby="descId"
      >
        <title id="titleId">sunya's GitHub Stats, Rank: A</title>
        <desc id="descId">Total Stars Earned: 112, Total Commits  (last year) : 736, Total PRs: 328, Total Issues: 105, Contributed to (last year): 2</desc>
        <style>
          .header {
            font: 600 18px 'Segoe UI', Ubuntu, Sans-Serif;
            fill: #137980;
            animation: fadeInAnimation 0.8s ease-in-out forwards;
          }
          @supports(-moz-appearance: auto) {
            /* Selector detects Firefox */
            .header { font-size: 15.5px; }
          }
          
    .stat {
      font: 600 14px 'Segoe UI', Ubuntu, "Helvetica Neue", Sans-Serif; fill: #4c4f69;
    }
    @supports(-moz-appearance: auto) {
      /* Selector detects Firefox */
      .stat { font-size:12px; }
    }
    .stagger {
      opacity: 0;
      animation: fadeInAnimation 0.3s ease-in-out forwards;
    }
    .rank-text {
      font: 800 24px 'Segoe UI', Ubuntu, Sans-Serif; fill: #4c4f69;
      animation: scaleInAnimation 0.3s ease-in-out forwards;
    }
    .rank-percentile-header {
      font-size: 14px;
    }
    .rank-percentile-text {
      font-size: 16px;
    }
    
    .not_bold { font-weight: 400 }
    .bold { font-weight: 700 }
    .icon {
      fill: #8839ef;
      display: block;
    }

    .rank-circle-rim {
      stroke: #137980;
      fill: none;
      stroke-width: 6;
      opacity: 0.2;
    }
    .rank-circle {
      stroke: #137980;
      stroke-dasharray: 250;
      fill: none;
      stroke-width: 6;
      stroke-linecap: round;
      opacity: 0.8;
      transform-origin: -10px 8px;
      transform: rotate(-90deg);
      animation: rankAnimation 1s forwards ease-in-out;
    }
    
    @keyframes rankAnimation {
      from {
        stroke-dashoffset: 251.32741228718345;
      }
      to {
        stroke-dashoffset: 52.46806709289269;
      }
    }
  
  

          
      /* Animations */
      @keyframes scaleInAnimation {
        from {
          transform: translate(-5px, 5px) scale(0);
        }
        to {
          transform: translate(-5px, 5px) scale(1);
        }
      }
      @keyframes fadeInAnimation {
        from {
          opacity: 0;
        }
        to {
          opacity: 1;
        }
      }
    
          
        </style>

        

        <rect
          data-testid="card-bg"
          x="0.5"
          y="0.5"
          rx="0"
          height="99%"
          stroke="#e4e2e2"
          width="466"
          fill="#fffefe"
          stroke-opacity="0"
        />

        
      <g
        data-testid="card-title"
        transform="translate(25, 35)"
      >
        <g transform="translate(0, 0)">
      <text
        x="0"
        y="0"
        class="header"
        data-testid="header"
      >sunya's GitHub Stats</text>
    </g>
      </g>
    

        <g
          data-testid="main-card-body"
          transform="translate(0, 55)"
        >
          
    <g data-testid="rank-circle"
          transform="translate(390.5, 47.5)">
        <circle class="rank-circle-rim" cx="-10" cy="8" r="40" />
        <circle class="rank-circle" cx="-10" cy="8" r="40" />
        <g class="rank-text">
          
        <text x="-5" y="3" alignment-baseline="central" dominant-baseline="central" text-anchor="middle" data-testid="level-rank-icon">
          A
        </text>
      
        </g>
      </g>
    <svg x="0" y="0">
      <g transform="translate(0, 0)">
    <g class="stagger" style="animation-delay: 450ms" transform="translate(25, 0)">
      
    <svg data-testid="icon" class="icon" viewBox="0 0 16 16" version="1.1" width="16" height="16">
      <path fill-rule="evenodd" d="M8 .25a.75.75 0 01.673.418l1.882 3.815 4.21.612a.75.75 0 01.416 1.279l-3.046 2.97.719 4.192a.75.75 0 01-1.088.791L8 12.347l-3.766 1.98a.75.75 0 01-1.088-.79l.72-4.194L.818 6.374a.75.75 0 01.416-1.28l4.21-.611L7.327.668A.75.75 0 018 .25zm0 2.445L6.615 5.5a.75.75 0 01-.564.41l-3.097.45 2.24 2.184a.75.75 0 01.216.664l-.528 3.084 2.769-1.456a.75.75 0 01.698 0l2.77 1.456-.53-3.084a.75.75 0 01.216-.664l2.24-2.183-3.096-.45a.75.75 0 01-.564-.41L8 2.694v.001z"/>
    </svg>
  
      <text class="stat  bold" x="25" y="12.5">Total Stars Earned:</text>
      <text
        class="stat  bold"
        x="219.01"
        y="12.5"
        data-testid="stars"
      >112</text>
    </g>
  </g><g transform="translate(0, 25)">
    <g class="stagger" style="animation-delay: 600ms" transform="translate(25, 0)">
      
    <svg data-testid="icon" class="icon" viewBox="0 0 16 16" version="1.1" width="16" height="16">
      <path fill-rule="evenodd" d="M1.643 3.143L.427 1.927A.25.25 0 000 2.104V5.75c0 .138.112.25.25.25h3.646a.25.25 0 00.177-.427L2.715 4.215a6.5 6.5 0 11-1.18 4.458.75.75 0 10-1.493.154 8.001 8.001 0 101.6-5.684zM7.75 4a.75.75 0 01.75.75v2.992l2.028.812a.75.75 0 01-.557 1.392l-2.5-1A.75.75 0 017 8.25v-3.5A.75.75 0 017.75 4z"/>
    </svg>
  
      <text class="stat  bold" x="25" y="12.5">Total Commits (last year):</text>
      <text
        class="stat  bold"
        x="219.01"
        y="12.5"
        data-testid="commits"
      >736</text>
    </g>
  </g><g transform="translate(0, 50)">
    <g class="stagger" style="animation-delay: 750ms" transform="translate(25, 0)">
      
    <svg data-testid="icon" class="icon" viewBox="0 0 16 16" version="1.1" width="16" height="16">
      <path fill-rule="evenodd" d="M7.177 3.073L9.573.677A.25.25 0 0110 .854v4.792a.25.25 0 01-.427.177L7.177 3.427a.25.25 0 010-.354zM3.75 2.5a.75.75 0 100 1.5.75.75 0 000-1.5zm-2.25.75a2.25 2.25 0 113 2.122v5.256a2.251 2.251 0 11-1.5 0V5.372A2.25 2.25 0 011.5 3.25zM11 2.5h-1V4h1a1 1 0 011 1v5.628a2.251 2.251 0 101.5 0V5A2.5 2.5 0 0011 2.5zm1 10.25a.75.75 0 111.5 0 .75.75 0 01-1.5 0zM3.75 12a.75.75 0 100 1.5.75.75 0 000-1.5z"/>
    </svg>
  
      <text class="stat  bold" x="25" y="12.5">Total PRs:</text>
      <text
        class="stat  bold"
        x="219.01"
        y="12.5"
        data-testid="prs"
      >328</text>
    </g>
  </g><g transform="translate(0, 75)">
    <g class="stagger" style="animation-delay: 900ms" transform="translate(25, 0)">
      
    <svg data-testid="icon" class="icon" viewBox="0 0 16 16" version="1.1" width="16" height="16">
      <path fill-rule="evenodd" d="M8 1.5a6.5 6.5 0 100 13 6.5 6.5 0 000-13zM0 8a8 8 0 1116 0A8 8 0 010 8zm9 3a1 1 0 11-2 0 1 1 0 012 0zm-.25-6.25a.75.75 0 00-1.5 0v3.5a.75.75 0 001.5 0v-3.5z"/>
    </svg>
  
      <text class="stat  bold" x="25" y="12.5">Total Issues:</text>
      <text
        class="stat  bold"
        x="219.01"
        y="12.5"
        data-testid="issues"
      >105</text>
    </g>
  </g><g transform="translate(0, 100)">
    <g class="stagger" style="animation-delay: 1050ms" transform="translate(25, 0)">
      
    <svg data-testid="icon" class="icon" viewBox="0 0 16 16" version="1.1" width="16" height="16">
      <path fill-rule="evenodd" d="M2 2.5A2.5 2.5 0 014.5 0h8.75a.75.75 0 01.75.75v12.5a.75.75 0 01-.75.75h-2.5a.75.75 0 110-1.5h1.75v-2h-8a1 1 0 00-.714 1.7.75.75 0 01-1.072 1.05A2.495 2.495 0 012 11.5v-9zm10.5-1V9h-8c-.356 0-.694.074-1 .208V2.5a1 1 0 011-1h8zM5 12.25v3.25a.25.25 0 00.4.2l1.45-1.087a.25.25 0 01.3 0L8.6 15.7a.25.25 0 00.4-.2v-3.25a.25.25 0 00-.25-.25h-3.5a.25.25 0 00-.25.25z"/>
    </svg>
  
      <text class="stat  bold" x="25" y="12.5">Contributed to (last year):</text>
      <text
        class="stat  bold"
        x="219.01"
        y="12.5"
        data-testid="contribs"
      >2</text>
    </g>
  </g>
    </svg>
  
        </g>
      </svg>
    </svg>
  <svg x="483" y="0" width="300" height="285">
      <svg
        width="300"
        height="285"
        viewBox="0 0 300 285"
        fill="none"
        role="img"
        aria-labelledby="descId"
      >
        <title id="titleId"></title>
        <desc id="descId"></desc>
        <style>
          .header {
            font: 600 18px 'Segoe UI', Ubuntu, Sans-Serif;
            fill: #137980;
            animation: fadeInAnimation 0.8s ease-in-out forwards;
          }
          @supports(-moz-appearance: auto) {
            /* Selector detects Firefox */
            .header { font-size: 15.5px; }
          }
          
    @keyframes slideInAnimation {
      from {
        width: 0;
      }
      to {
        width: calc(100%-100px);
      }
    }
    @keyframes growWidthAnimation {
      from {
        width: 0;
      }
      to {
        width: 100%;
      }
    }
    .stat {
      font: 600 14px 'Segoe UI', Ubuntu, "Helvetica Neue", Sans-Serif; fill: #4c4f69;
    }
    @supports(-moz-appearance: auto) {
      /* Selector detects Firefox */
      .stat { font-size:12px; }
    }
    .bold { font-weight: 700 }
    .lang-name {
      font: 400 11px "Segoe UI", Ubuntu, Sans-Serif;
      fill: #4c4f69;
    }
    .stagger {
      opacity: 0;
      animation: fadeInAnimation 0.3s ease-in-out forwards;
    }
    #rect-mask rect{
      animation: slideInAnimation 1s ease-in-out forwards;
    }
    .lang-progress{
      animation: growWidthAnimation 0.6s ease-in-out forwards;
    }
    

          
      /* Animations */
      @keyframes scaleInAnimation {
        from {
          transform: translate(-5px, 5px) scale(0);
        }
        to {
          transform: translate(-5px, 5px) scale(1);
        }
      }
      @keyframes fadeInAnimation {
        from {
          opacity: 0;
        }
        to {
          opacity: 1;
        }
      }
    
          
        </style>

        

        <rect
          data-testid="card-bg"
          x="0.5"
          y="0.5"
          rx="0"
          height="99%"
          stroke="#e4e2e2"
          width="299"
          fill="#fffefe"
          stroke-opacity="0"
        />

        
      <g
        data-testid="card-title"
        transform="translate(25, 35)"
      >
        <g transform="translate(0, 0)">
      <text
        x="0"
        y="0"
        class="header"
        data-testid="header"
      >Most Used Languages</text>
    </g>
      </g>
    

        <g
          data-testid="main-card-body"
          transform="translate(0, 55)"
        >
          
    <svg data-testid="lang-items" x="25">
      <g transform="translate(0, 0)">
    <g class="stagger" style="animation-delay: 450ms">
      <text data-testid="lang-name" x="2" y="15" class="lang-name">TypeScript</text>
      <text x="215" y="34" class="lang-name">57.99%</text>
      
    <svg width="205" x="0" y="25">
      <rect rx="5" ry="5" x="0" y="0" width="205" height="8" fill="#ddd"></rect>
      <svg data-testid="lang-progress" width="57.99148846276025%">
        <rect
            height="8"
            fill="#3178c6"
            rx="5" ry="5" x="0" y="0"
            class="lang-progress"
            style="animation-delay: 750ms;"
        />
      </svg>
    </svg>
  
    </g>
  </g><g transform="translate(0, 40)">
    <g class="stagger" style="animation-delay: 600ms">
      <text data-testid="lang-name" x="2" y="15" class="lang-name">Kotlin</text>
      <text x="215" y="34" class="lang-name">17.09%</text>
      
    <svg width="205" x="0" y="25">
      <rect rx="5" ry="5" x="0" y="0" width="205" height="8" fill="#ddd"></rect>
      <svg data-testid="lang-progress" width="17.08545143018997%">
        <rect
            height="8"
            fill="#A97BFF"
            rx="5" ry="5" x="0" y="0"
            class="lang-progress"
            style="animation-delay: 900ms;"
        />
      </svg>
    </svg>
  
    </g>
  </g><g transform="translate(0, 80)">
    <g class="stagger" style="animation-delay: 750ms">
      <text data-testid="lang-name" x="2" y="15" class="lang-name">Vue</text>
      <text x="215" y="34" class="lang-name">10.44%</text>
      
    <svg width="205" x="0" y="25">
      <rect rx="5" ry="5" x="0" y="0" width="205" height="8" fill="#ddd"></rect>
      <svg data-testid="lang-progress" width="10.444197984546596%">
        <rect
            height="8"
            fill="#41b883"
            rx="5" ry="5" x="0" y="0"
            class="lang-progress"
            style="animation-delay: 1050ms;"
        />
      </svg>
    </svg>
  
    </g>
  </g><g transform="translate(0, 120)">
    <g class="stagger" style="animation-delay: 900ms">
      <text data-testid="lang-name" x="2" y="15" class="lang-name">CSS</text>
      <text x="215" y="34" class="lang-name">9.36%</text>
      
    <svg width="205" x="0" y="25">
      <rect rx="5" ry="5" x="0" y="0" width="205" height="8" fill="#ddd"></rect>
      <svg data-testid="lang-progress" width="9.364976892413948%">
        <rect
            height="8"
            fill="#663399"
            rx="5" ry="5" x="0" y="0"
            class="lang-progress"
            style="animation-delay: 1200ms;"
        />
      </svg>
    </svg>
  
    </g>
  </g><g transform="translate(0, 160)">
    <g class="stagger" style="animation-delay: 1050ms">
      <text data-testid="lang-name" x="2" y="15" class="lang-name">JavaScript</text>
      <text x="215" y="34" class="lang-name">5.11%</text>
      
    <svg width="205" x="0" y="25">
      <rect rx="5" ry="5" x="0" y="0" width="205" height="8" fill="#ddd"></rect>
      <svg data-testid="lang-progress" width="5.113885230089233%">
        <rect
            height="8"
            fill="#f1e05a"
            rx="5" ry="5" x="0" y="0"
            class="lang-progress"
            style="animation-delay: 1350ms;"
        />
      </svg>
    </svg>
  
    </g>
  </g>
    </svg>
  
        </g>
      </svg>
    </svg>
</svg>
